<svg width="282" height="316" viewBox="0 0 282 316" fill="none" xmlns="http://www.w3.org/2000/svg">
<path d="M200.438 314.679H116.591L94.5356 289.745L95.0597 289.281L116.895 313.981H199.25L175.549 271.18L266.384 225.089L250.596 165.97L280.383 143.066L260.441 28.265L224.369 64.3367L223.873 63.8371L260.906 26.8047L281.141 143.363L280.976 143.492L251.392 166.239L267.191 225.456L176.514 271.477L200.438 314.679ZM185.625 305.945H120.511L106.187 289.742L106.711 289.277L120.829 305.247H184.441L163.531 267.481L256.112 220.495L240.664 162.595L270.88 139.362L254.722 46.3341L226.196 74.8595L225.7 74.3669L255.18 44.8877L271.641 139.649L241.46 162.857L256.93 220.851L256.678 220.98L164.492 267.788L185.625 305.945Z" stroke="#DAD2FF" stroke-width="1.5"/>
<path d="M153.225 289.875H69.3781L2 213.714L213.714 2L213.829 2.66379L233.952 118.544L160.062 175.35L206.877 151.531L219.974 200.641L129.308 246.659L153.225 289.875ZM69.689 289.176H152.041L128.343 246.362L219.178 200.274L206.429 152.544L157.019 177.68L156.649 177.094L203.582 141.008L233.18 118.25L213.239 3.44636L2.95725 213.731L69.689 289.176Z" stroke="#DAD2FF" stroke-width="1.5"/>
</svg>
