<svg width="173" height="44" viewBox="0 0 173 44" fill="none" xmlns="http://www.w3.org/2000/svg">
<path d="M35.4587 23.0683L39.7075 19.8364L36.8397 3.50311L31.6264 8.66554L31.8858 10.1514L36.025 6.05541L38.3485 19.3122L34.6989 22.0922L34.0413 22.5911L34.2568 23.3864L36.2478 30.7758L24.1993 36.8276L23.0485 37.406L23.6733 38.5231L26.0479 42.7672H16.8636L14.8323 40.4933H13.1701L16.3046 44H28.1595L24.7619 37.9266L37.7128 31.4229L35.4587 23.0683Z" fill="white"/>
<path d="M30.9761 27.9198L18.0289 34.4198L21.4265 40.4933H9.56793L0 29.7924L30.103 0L32.9708 16.3332L28.7221 19.5652L22.0293 24.6589L29.1349 21.0835L30.9761 27.9198Z" fill="#FFBE00"/>
<path d="M56.3874 20.6182L55.0203 25.5934H60.0722L58.9134 29.7406H53.8577L51.1273 39.632H45L51.4379 16.4011H62.6057L61.4431 20.6182H56.3874Z" fill="#FFC042"/>
<path d="M75.8147 16.4011L73.4024 39.632H67.4947L67.9378 36.0147H64.1811L62.5678 39.632H57.4971L67.9113 16.4011H75.8147ZM68.3733 32.3643L69.3276 24.2318L65.7754 32.3643H68.3733Z" fill="#FFC042"/>
<path d="M76.4661 37.0561C76.4706 36.7884 76.5048 36.5219 76.5683 36.2613L77.7953 31.8123H83.9075L82.8699 35.6467C82.8331 35.8003 82.8102 35.9567 82.8017 36.1141C82.8017 36.5115 83.0744 36.7102 83.8242 36.7102C84.68 36.7102 85.055 36.379 85.2594 35.6467L86.4902 31.2309C86.527 31.0898 86.5499 30.9457 86.5584 30.8004C86.5584 30.3036 86.2516 30.0055 85.6684 30.0055H82.5972C80.2417 30.0055 79.045 29.0414 79.045 27.713C79.0455 27.4776 79.0799 27.2435 79.1473 27.0175L81.0408 20.081C81.961 16.7691 86.0282 16 89.4403 16C92.788 16 95.9652 16.6329 95.9652 18.9218C95.9512 19.2021 95.9042 19.4799 95.8251 19.7498L94.4959 24.5667H88.3837L89.5198 20.3827C89.5566 20.2416 89.5795 20.0975 89.588 19.9522C89.588 19.5216 89.2812 19.3229 88.5314 19.3229C87.6755 19.3229 87.2666 19.6541 87.0621 20.3827L85.8994 24.6992C85.8626 24.8402 85.8398 24.9844 85.8313 25.1297C85.8238 25.2421 85.8423 25.3548 85.8854 25.4593C85.9286 25.5639 85.9953 25.6577 86.0806 25.734C86.166 25.8102 86.2678 25.8669 86.3787 25.8999C86.4895 25.9328 86.6066 25.9413 86.7212 25.9246H89.8606C92.2199 25.9246 93.4128 26.8887 93.4128 28.2171C93.4123 28.4524 93.3779 28.6865 93.3106 28.9126L91.3641 35.9043C90.4438 39.2309 86.6076 40 82.8699 40C79.81 40 76.4661 39.3634 76.4661 37.0561Z" fill="#FFC042"/>
<path d="M112.151 20.6182H107.864L102.589 39.632H96.4766L101.733 20.6182H97.4309L98.5935 16.4011H113.31L112.151 20.6182Z" fill="#FFC042"/>
<path d="M120.584 20.6182L119.225 25.5934H124.28L123.118 29.7406H118.055L115.324 39.632H109.212L115.631 16.4011H126.799L125.636 20.6182H120.584Z" fill="#F7F5FA"/>
<path d="M135.164 20.6182L133.797 25.5934H138.853L137.69 29.7406H132.638L131.067 35.4149H136.119L134.96 39.632H123.792L130.23 16.4011H141.379L140.22 20.6182H135.164Z" fill="#F7F5FA"/>
<path d="M150.085 20.6182L148.722 25.5934H153.773L152.615 29.7406H147.559L145.987 35.4149H151.035L149.899 39.632H138.716L145.135 16.4011H156.303L155.14 20.6182H150.085Z" fill="#F7F5FA"/>
<path d="M171.838 20.6182H167.536L162.279 39.632H156.163L161.423 20.6182H157.121L158.284 16.4011H173L171.838 20.6182Z" fill="#F7F5FA"/>
</svg>
